<svg xmlns="http://www.w3.org/2000/svg" viewBox="0 0 28.71 27.55"  x="0px" y="0px" width="37px" height="32px" >
  <g/><g>
  <g><g>
    <path d="M28.47,19.41c-.53-1.07-2.03-1.81-3.73-1.28h0l-1.28,.43,.64-.75c1.71-1.92,2.67-4.37,2.67-6.93,0-4.59-2.88-8.75-7.25-10.24-1.07-.43-2.24-.53-3.31-.64h-.21c-3.31,0-6.51,1.6-8.53,4.16-2.56,3.2-3.09,7.36-1.49,10.99l.21,.43h-.53c-.64-.11-.27-.23-.81-.21-1.07,.03-1.03,.32-1.99,.96l-1.77,1.6c-.75,.43-1.07,1.28-1.07,2.24,0,.85,.32,1.71,.75,2.67,.53,.96,.07,1.71,.81,2.24,.85,.64,1.6,.96,2.35,.85l1.24-.32c.11,0-.79,0-.68,0,.43,0,1.07,.11,1.71,.21s1.28,.32,1.92,.53l.21,.11c.21,.11,.53,.11,.75,.21,1.81,.53,4.37,1.28,6.4,.64h0l11.52-4.59c.75-.32,1.28-.85,1.49-1.39,.32-.64,.32-1.28,0-1.92ZM8.2,4.8c1.81-2.35,4.69-3.73,7.79-3.73h.21c1.07,0,2.03,.21,2.99,.53,3.95,1.39,6.61,5.12,6.61,9.39s-2.77,7.89-6.83,9.17h-.11l-1.17,.43-.11-.21c-.53-1.28-1.6-2.03-3.31-2.24-2.56-.43-4.37-1.07-6.08-1.71l-.53-.21v-.11c-2.24-3.52-2.03-8,.53-11.31ZM27.61,20.91c-.11,.32-.43,.64-.85,.85l-11.41,4.59c-.43,.11-.85,.21-1.28,.21-1.07,0-2.56-.21-4.48-.85-.32-.11-.64-.21-1.07-.32h0c-.75-.21-1.39-.43-2.03-.53-.85-.21-.71-.43-1.45-.21l-1.24,.32c-.43,.11-.96-.21-1.49-.64s-.17-1.17-.49-2.03c-.43-.75-.64-1.6-.64-2.24s.1-1.19,.42-1.3l.12-.08h0c.32-.21,.34-.23,1.77-1.4l.11-.07c.96-.53,.7-.79,1.55-.79h.11l1.35,.53c.43,.11,.85,.32,1.28,.53h0c1.6,.64,3.52,1.39,6.29,1.81,1.81,.32,2.45,.96,2.67,1.49s.11,.96,.11,1.07c-.11,.32-.21,.32-.53,.43s-.85,.11-1.6,.11l-5.23-.43h0c-.11,0-.32,0-.32,.11-.11,.11-.11,.21-.11,.32s0,.32,.11,.32c.11,.11,.21,.21,.43,.21l5.12,.21c.85,0,1.39,.11,1.92-.11,.75-.21,1.07-.64,1.17-1.28v-.11h0l7.25-2.45c1.39-.43,2.13,.11,2.56,.75,0,.32,0,.64-.11,.96Z"/>
    <path d="M13.21,13.97c.85,.32,1.71,.53,2.35,.64h.21v1.39c0,.21,.11,.32,.21,.43,.21,.11,.43,.11,.53,0s.21-.21,.21-.43v-1.49l.21-.11c.96-.32,1.39-.96,1.6-1.17,.43-.64,.32-1.49-.11-2.03s-1.17-.96-2.03-.96h-.21c-.85,0-1.49-.11-1.81-.43-.21-.21-.32-.53-.11-.85,.11-.21,.32-.64,1.07-.75,.53-.11,1.39-.11,2.77,.53,.21,.11,.43,.11,.53,0,.21-.11,.21-.32,.21-.53s-.11-.32-.32-.43c-.53-.21-1.07-.43-1.6-.53h-.21v-1.6c0-.11,0-.32-.11-.43s-.21-.21-.32-.11c-.11,0-.32,.11-.32,.11-.11,.11-.11,.21-.11,.32v1.6h-.64c-.85,.21-1.49,.64-1.81,1.39-.32,.64-.21,1.49,.32,2.03s1.39,.85,2.45,.85h.21c.85,0,1.17,.32,1.39,.53,.21,.32,.21,.64,0,.96-.21,.32-.53,.64-1.07,.75-.53,.11-1.49,.11-3.09-.53h0c-.11,0-.21-.11-.21-.11-.11,0-.21,0-.21,.11-.32,.11-.43,.32-.32,.53,0,.11,.11,.32,.32,.32Z"/>
    </g>
  </g>
  </g>
</svg>