<svg xmlns="http://www.w3.org/2000/svg" viewBox="0 0 25.11 26.17">
  <g>
    <g>
      <path d="M24.85,3l-.04-.04c-.34-.23-.59-.23-.7-.23h-.25c-1.81,.44-7.92,1.54-10.65-2.47-.16-.16-.42-.26-.65-.26-.17,0-.56,.13-.69,.39C8.84,4.64,1.88,3.03,1.09,2.83h-.17c-.15-.01-.29,0-.65,.25l-.03,.03c-.12,.06-.23,.2-.23,.53C0,24.85,12.34,26.17,12.47,26.17h.18c.12,0,12.47-.97,12.47-22.52,0-.36-.13-.52-.27-.65Zm-1.48,1.8v.08c-.32,16.81-8.89,19.21-10.82,19.54-.62-.08-10.38-1.71-10.8-19.54v-.18l.18,.03c2.66,.44,7.57,.73,10.58-2.38l.02-.02,.08,.11c3.73,3.82,9.9,2.54,10.58,2.38l.18-.03Z"/><path d="M18.45,8.6c-.41-.27-.91-.22-1.26,.13l-6.58,6.58-2.61-2.61c-.13-.13-.38-.27-.57-.27-.3,0-.47,.17-.56,.26-.13,.13-.27,.38-.27,.57,0,.3,.17,.47,.26,.56l3.17,3.17c.14,.14,.34,.22,.56,.22s.44-.07,.66-.22l7.23-7.23c.13-.13,.26-.38,.26-.56,0-.3-.17-.47-.31-.6Z"/>
    </g>
  </g>
</svg>