<svg xmlns="http://www.w3.org/2000/svg" viewBox="0 0 29.64 23.3">
  <g>
    <g>
      <path d="M6.22,20.47c.6,0,1.06-.46,1.06-1.06s-.46-1.06-1.06-1.06-1.06,.46-1.06,1.06,.46,1.06,1.06,1.06Z"/>
      <path d="M21.75,20.47c.6,0,1.06-.46,1.06-1.06s-.46-1.06-1.06-1.06-1.06,.46-1.06,1.06,.46,1.06,1.06,1.06Z"/>
      <path d="M28.03,9.88h-.38c-.17-.33-.37-.9-.53-1.41-.38-1.27-.82-3.4-1.21-4.1-.43-.75-.76-1.2-1.21-1.65-.35-.48-.97-.98-1.65-.98h-3.62c-.14-.99-.98-1.74-2.01-1.74H2.04C.89,0,0,.89,0,2.04V18.13c0,1.18,.91,2.14,2.04,2.14h.46c.34,1.77,1.86,3.03,3.72,3.03s3.27-1.26,3.61-3.03h8.2c.34,1.77,1.82,3.03,3.62,3.03s3.37-1.29,3.72-3.03h2.67c.93,0,1.6-.67,1.6-1.6v-7.07c0-1.01-.66-1.71-1.6-1.71h0Zm0,8.8h-2.67c-.31-1.96-1.62-3.03-3.72-3.03-.86,0-1.66,.3-2.3,.84v-5.15h8.58s.14,.08,.14,.14v7.07l-.06,.07,.03,.07h0Zm-6.29-1.57c1.31,0,2.19,.93,2.3,2.41,0,1.29-1.01,2.3-2.3,2.3s-2.3-1.08-2.3-2.41,.99-2.3,2.3-2.3Zm-2.3-7.7V3.2h3.59s.25,.05,.56,.45c.33,.33,.64,.76,1.03,1.43,.32,.65,.75,2.72,1.07,3.67,.08,.24,.16,.46,.23,.67,.07,.2,.14,.39,.19,.56h-6.66v-.56h-.01Zm-13.23,7.72h.22c1.07,.1,2.08,.92,2.08,2.4,0,1.33-1.03,2.41-2.3,2.41s-2.3-1.05-2.3-2.3c0-1.41,1.01-2.51,2.3-2.51ZM17.98,2.04V18.8H9.85c-.07-.73-.4-1.43-.94-1.97-.71-.71-1.77-1.17-2.7-1.17-1.82,0-3.37,1.29-3.72,3.03h-.46c-.42,0-.56-.36-.56-.67V1.92c0-.37,.29-.56,.56-.56h15.28c.37,0,.67,.3,.67,.67h0Z"/>
      <rect x="4.11" y="9.17" width="9.96" height="1.57"/>
      <rect x="8.55" y="5.66" width="5.63" height="1.57"/>
    </g>
  </g>
</svg>