<svg xmlns="http://www.w3.org/2000/svg" viewBox="0 0 26.3 26.38">
  <g>
    <path d="M24.07,10.88h-.93v-.84C23.14,4.5,18.68,0,13.19,0h-.09C7.57,0,3.07,4.5,3.07,10.03v.84h-.75c-1.26,0-2.32,1.06-2.32,2.32v4.65c0,1.26,1.06,2.32,2.32,2.32h1.01l.02,.06c.29,.88,1.19,1.52,2.13,1.52,1.26,0,2.32-1.06,2.32-2.32v-7.72c0-1.26-1.06-2.32-2.32-2.32-.2,0-.51,0-.71,.1l-.13,.04v-.09c.34-4.47,4.06-7.97,8.47-7.97s8.13,3.5,8.47,7.94v.11h-.03c-.15-.15-.44-.15-.64-.15-1.26,0-2.32,1.06-2.32,2.32v7.63c0,1.26,1.06,2.32,2.32,2.32,.28,0,.51,0,.73-.11h.03v.95c0,.45-.39,.84-.84,.84h-5.57l-.02-.06c-.29-.88-1.19-1.52-2.13-1.52-1.26,0-2.32,1.06-2.32,2.32s1.06,2.32,2.32,2.32c.94,0,1.83-.64,2.13-1.52l.02-.06h5.57c1.26,0,2.32-1.06,2.32-2.32v-2.42h.84c1.26,0,2.32-1.06,2.32-2.32v-4.56c0-1.23-1.04-2.32-2.23-2.32Zm.75,2.4v4.56c0,.45-.39,.84-.84,.84h-.84v-6.24h.84c.45,0,.84,.39,.84,.84Zm-3.07-1.67v7.72c0,.45-.39,.84-.84,.84s-.84-.39-.84-.84v-7.72c0-.45,.39-.84,.84-.84s.84,.39,.84,.84ZM4.63,19.33v-7.72c0-.45,.39-.84,.84-.84s.84,.39,.84,.84v7.72c0,.45-.39,.84-.84,.84s-.84-.39-.84-.84Zm-1.48-6.98v6.24h-.84c-.45,0-.84-.39-.84-.84v-4.56c0-.44,.31-.77,.75-.84h.93Zm10.88,11.63c0,.58-.44,.84-.84,.84-.45,0-.84-.39-.84-.84s.39-.84,.84-.84,.84,.39,.84,.84Z"/>
  </g>
</svg>