<svg width="253" height="89" viewBox="0 0 253 89" fill="none" xmlns="http://www.w3.org/2000/svg">
<path d="M74.4696 30.8799H76.9996V47H74.4696V40.19H67.4896V47H64.9695V30.8799H67.4896V37.68H74.4696V30.8799ZM80.1096 47V30.8799H82.6396V47H80.1096ZM101.35 30.5299H101.54V47H99.0097V38.06L93.6597 46.73H93.6397L88.2797 38.05V47H85.7496V30.5299H85.9396L93.6497 42.25L101.35 30.5299ZM115.9 47L114.8 44.55H107.17L106.07 47H103.33L110.91 30.5499H111.06L118.64 47H115.9ZM108.15 42.38H113.82L110.99 36.0799L108.15 42.38ZM130.85 30.8399H133.39V47.28H133.27L122.96 36.5099V47.02H120.43V30.5999H120.56L130.85 41.35V30.8399ZM141.14 47.27C138.49 47.27 136.48 46.03 135.56 44.17L137.56 42.74C138.28 44 139.62 44.72 141.17 44.72C142.98 44.72 144.35 43.85 144.35 42.62C144.35 41.13 142.23 40.23 140.35 39.42C138.46 38.58 136.36 37.6 136.36 35.0699C136.36 32.4299 138.65 30.5899 141.55 30.5899C143.85 30.5899 145.57 31.6999 146.23 33.4699L144.35 34.7699C143.85 33.6799 142.74 33.0699 141.57 33.0699C140.09 33.0699 138.91 33.9899 138.91 35.1299C138.91 36.3899 140.4 36.84 142.36 37.68C144.91 38.8 146.89 40.03 146.89 42.57C146.89 45.43 144.41 47.27 141.14 47.27ZM158.57 30.8799H161.1V47H158.57V40.19H151.59V47H149.07V30.8799H151.59V37.68H158.57V30.8799ZM170.15 47.3C166.72 47.3 164.06 44.59 164.06 40.89V30.8799H166.6V40.88C166.6 43.11 168.17 44.74 170.14 44.74C172.11 44.74 173.7 43.11 173.7 40.88V30.8799H176.25V40.89C176.25 44.59 173.58 47.3 170.15 47.3ZM192.44 37.92C194.25 37.92 196.29 39.58 196.29 42.09C196.29 44.56 194.42 47 191.22 47H185.19V30.8799H189.59C192.37 30.8799 194.25 32.8799 194.25 35.0199C194.25 36.76 193.04 37.92 192.44 37.92ZM189.74 33.3399H187.71V37.36L189.71 37.35C190.96 37.36 191.88 36.4999 191.88 35.3499C191.88 34.1999 190.88 33.3399 189.74 33.3399ZM190.99 44.53C192.44 44.53 193.82 43.48 193.82 41.92C193.82 40.7 192.78 39.58 190.95 39.58L187.71 39.59V44.53H190.99ZM207.91 33.3699H200.84V37.5H206.94V40.02H200.84V44.48H207.91V47H198.31V30.8799H207.91V33.3699ZM221.8 47L220.7 44.55H213.07L211.97 47H209.23L216.81 30.5499H216.96L224.54 47H221.8ZM214.05 42.38H219.72L216.89 36.0799L214.05 42.38ZM230.92 30.8799C236.04 30.8699 239.23 33.9699 239.23 38.96C239.23 43.91 236.04 47 230.92 47H226.33V30.8799H230.92ZM230.94 44.48C234.46 44.48 236.67 42.35 236.67 38.95C236.67 35.5299 234.45 33.3899 230.91 33.3899H228.85V44.48H230.94ZM246.2 47.27C243.55 47.27 241.54 46.03 240.62 44.17L242.62 42.74C243.34 44 244.68 44.72 246.23 44.72C248.04 44.72 249.41 43.85 249.41 42.62C249.41 41.13 247.29 40.23 245.41 39.42C243.52 38.58 241.42 37.6 241.42 35.0699C241.42 32.4299 243.71 30.5899 246.61 30.5899C248.91 30.5899 250.63 31.6999 251.29 33.4699L249.41 34.7699C248.91 33.6799 247.8 33.0699 246.63 33.0699C245.15 33.0699 243.97 33.9899 243.97 35.1299C243.97 36.3899 245.46 36.84 247.42 37.68C249.97 38.8 251.95 40.03 251.95 42.57C251.95 45.43 249.47 47.27 246.2 47.27ZM122.192 68.66C121.968 68.66 121.772 68.6413 121.604 68.604C121.436 68.576 121.287 68.534 121.156 68.478V67.414C121.305 67.4513 121.464 67.484 121.632 67.512C121.8 67.54 121.977 67.554 122.164 67.554C122.397 67.554 122.617 67.5073 122.822 67.414C123.037 67.3207 123.209 67.1573 123.34 66.924C123.471 66.6907 123.536 66.364 123.536 65.944V56.004H124.796V65.846C124.796 66.49 124.689 67.0173 124.474 67.428C124.259 67.848 123.956 68.156 123.564 68.352C123.172 68.5573 122.715 68.66 122.192 68.66ZM133.02 66H127.434V56.004H133.02V57.11H128.694V60.232H132.768V61.324H128.694V64.894H133.02V66ZM146.693 56.004L144.033 66H142.759L140.813 59.448C140.757 59.252 140.701 59.0513 140.645 58.846C140.589 58.6407 140.538 58.4447 140.491 58.258C140.445 58.0713 140.403 57.9127 140.365 57.782C140.337 57.642 140.319 57.5393 140.309 57.474C140.3 57.5393 140.281 57.642 140.253 57.782C140.235 57.9127 140.202 58.0713 140.155 58.258C140.109 58.4447 140.057 58.6453 140.001 58.86C139.955 59.0653 139.899 59.2753 139.833 59.49L137.943 66H136.669L134.023 56.004H135.339L136.893 62.108C136.949 62.3227 137.001 62.5373 137.047 62.752C137.094 62.9573 137.136 63.1627 137.173 63.368C137.22 63.564 137.257 63.7553 137.285 63.942C137.313 64.1287 137.341 64.3107 137.369 64.488C137.397 64.3013 137.425 64.11 137.453 63.914C137.491 63.718 137.533 63.5173 137.579 63.312C137.626 63.0973 137.677 62.8827 137.733 62.668C137.789 62.4533 137.845 62.2433 137.901 62.038L139.665 56.004H140.967L142.801 62.08C142.867 62.2947 142.927 62.514 142.983 62.738C143.039 62.9527 143.091 63.1627 143.137 63.368C143.184 63.5733 143.221 63.774 143.249 63.97C143.287 64.1567 143.319 64.3293 143.347 64.488C143.375 64.2547 143.413 64.012 143.459 63.76C143.506 63.4987 143.562 63.228 143.627 62.948C143.693 62.668 143.763 62.3833 143.837 62.094L145.377 56.004H146.693ZM153.815 66H148.229V56.004H153.815V57.11H149.489V60.232H153.563V61.324H149.489V64.894H153.815V66ZM156.008 66V56.004H157.268V64.88H161.636V66H156.008ZM163.35 66V56.004H164.61V64.88H168.978V66H163.35ZM176.278 66H170.692V56.004H176.278V57.11H171.952V60.232H176.026V61.324H171.952V64.894H176.278V66ZM181.229 56.004C182.06 56.004 182.741 56.1113 183.273 56.326C183.815 56.5313 184.216 56.844 184.477 57.264C184.739 57.684 184.869 58.2113 184.869 58.846C184.869 59.378 184.771 59.8213 184.575 60.176C184.379 60.5307 184.127 60.8153 183.819 61.03C183.521 61.2353 183.203 61.3987 182.867 61.52L185.611 66H184.141L181.719 61.87H179.731V66H178.471V56.004H181.229ZM181.159 57.096H179.731V60.806H181.229C182.041 60.806 182.634 60.6473 183.007 60.33C183.381 60.0033 183.567 59.5273 183.567 58.902C183.567 58.4633 183.479 58.1133 183.301 57.852C183.133 57.5907 182.872 57.3993 182.517 57.278C182.163 57.1567 181.71 57.096 181.159 57.096ZM189.784 60.918L192.388 56.004H193.746L190.414 62.122V66H189.154V62.178L185.822 56.004H187.194L189.784 60.918Z" fill="#FFEFE5"/>
<path d="M11.8928 29.2855C18.9409 28.4644 18.9409 22.6379 19.7366 20.8392C20.8734 28.4644 23.8582 28.287 27.4668 29.2855C20.8668 30.9129 20.6082 35.5812 19.7366 37.2626C18.1451 30.4586 13.7875 30.5368 11.8928 29.2855Z" fill="url(#paint0_linear_1_393)"/>
<path d="M44.6076 17.2962C44.6076 27.9314 32.2311 33.321 21.0641 38.6769V45.7677C25.3265 41.0613 32.275 40.8467 35.2165 41.3277C47.8261 44.4927 51.3763 56.7064 50.9693 62.4177C49.4153 80.8437 37.4482 88.8356 24.7826 88.8356C4.66937 87.5924 0.0411914 72.1856 0.0411839 61.6406C-0.935615 46.3226 15.7361 39.8292 21.0641 36.8877C41.1772 23.9673 36.0305 12.6712 30.61 8.97118L29.167 8.31583C16.6356 2.64416 5.40203 12.3012 8.81015 24.0671C-0.125349 12.6897 11.1481 2.53319 18.9551 0.646195C34.9835 -2.7282 45.2181 7.75016 44.6076 17.2962Z" fill="url(#paint1_linear_1_393)"/>
<path d="M17.9562 65.1401V43.8836C-1.73476 49.8776 3.33541 71.3006 6.03522 75.6851C12.9727 86.9516 25.2497 85.6751 27.7357 84.6761C36.9602 83.0111 41.82 72.2672 42.5427 66.5831C43.7035 57.4534 39.6127 53.9291 38.0472 52.2086C26.5476 44.7494 19.8617 57.7216 17.9562 65.1401Z" fill="#800000"/>
<path d="M21.6861 32.9501C20.1876 36.2246 21.0201 41.1109 21.0201 42.6626L18.0231 44.0501C18.5454 38.6073 19.2873 36.1036 18.0231 32.9501H21.6861Z" fill="url(#paint2_linear_1_393)"/>
<defs>
<linearGradient id="paint0_linear_1_393" x1="19.6798" y1="20.8392" x2="19.6798" y2="37.2626" gradientUnits="userSpaceOnUse">
<stop stop-color="white"/>
<stop offset="1" stop-color="#FFD2B5"/>
</linearGradient>
<linearGradient id="paint1_linear_1_393" x1="25.5" y1="0" x2="25.5" y2="88.8356" gradientUnits="userSpaceOnUse">
<stop stop-color="white"/>
<stop offset="0.990385" stop-color="#FFC7A3"/>
</linearGradient>
<linearGradient id="paint2_linear_1_393" x1="19.8546" y1="32.9501" x2="19.8546" y2="44.0501" gradientUnits="userSpaceOnUse">
<stop stop-color="#FFE0CC"/>
<stop offset="0.990385" stop-color="#FFE8DA"/>
</linearGradient>
</defs>
</svg>
